<svg xmlns="http://www.w3.org/2000/svg" xmlns:xlink="http://www.w3.org/1999/xlink" width="40" zoomAndPan="magnify" viewBox="0 0 30 30.000001" height="40" preserveAspectRatio="xMidYMid meet" version="1.0"><defs><clipPath id="1599845fbe"><path d="M 0.484375 0 L 29.515625 0 L 29.515625 29.03125 L 0.484375 29.03125 Z M 0.484375 0 " clip-rule="nonzero"/></clipPath><clipPath id="baa86189f5"><path d="M 7 2.191406 L 23 2.191406 L 23 26.144531 L 7 26.144531 Z M 7 2.191406 " clip-rule="nonzero"/></clipPath><clipPath id="43b756e413"><path d="M 4.796875 4 L 25.117188 4 L 25.117188 20 L 4.796875 20 Z M 4.796875 4 " clip-rule="nonzero"/></clipPath></defs><g clip-path="url(#1599845fbe)"><path fill="#ffffff" d="M 0.484375 0 L 29.515625 0 L 29.515625 29.03125 L 0.484375 29.03125 Z M 0.484375 0 " fill-opacity="1" fill-rule="nonzero"/><path fill="#ffffff" d="M 0.484375 0 L 29.515625 0 L 29.515625 29.03125 L 0.484375 29.03125 Z M 0.484375 0 " fill-opacity="1" fill-rule="nonzero"/></g><g clip-path="url(#baa86189f5)"><path fill="#846a1d" d="M 9.617188 26.121094 L 20.371094 26.121094 C 21.734375 26.121094 22.847656 25.003906 22.847656 23.644531 L 22.847656 22.613281 L 7.140625 22.613281 L 7.140625 23.644531 C 7.140625 25.003906 8.257812 26.121094 9.617188 26.121094 Z M 13.515625 23.3125 L 16.476562 23.3125 C 16.746094 23.3125 16.996094 23.425781 17.171875 23.601562 C 17.351562 23.78125 17.460938 24.027344 17.460938 24.300781 C 17.460938 24.570312 17.351562 24.820312 17.171875 24.996094 C 16.996094 25.175781 16.746094 25.289062 16.476562 25.289062 L 13.515625 25.289062 C 13.242188 25.289062 12.996094 25.175781 12.816406 24.996094 C 12.636719 24.820312 12.527344 24.570312 12.527344 24.300781 C 12.527344 24.027344 12.636719 23.78125 12.816406 23.601562 C 12.996094 23.425781 13.242188 23.3125 13.515625 23.3125 Z M 16.476562 23.910156 C 16.582031 23.910156 16.679688 23.957031 16.75 24.027344 C 16.820312 24.097656 16.863281 24.195312 16.863281 24.300781 C 16.863281 24.40625 16.820312 24.503906 16.75 24.574219 C 16.679688 24.644531 16.582031 24.6875 16.476562 24.6875 L 13.515625 24.6875 C 13.40625 24.6875 13.3125 24.644531 13.238281 24.574219 C 13.167969 24.503906 13.125 24.40625 13.125 24.300781 C 13.125 24.195312 13.167969 24.097656 13.238281 24.027344 C 13.3125 23.957031 13.40625 23.910156 13.515625 23.910156 Z M 22.847656 22.015625 L 22.847656 20.398438 C 22.75 20.40625 22.652344 20.414062 22.550781 20.414062 L 7.441406 20.414062 C 7.339844 20.414062 7.238281 20.40625 7.140625 20.398438 L 7.140625 22.015625 Z M 22.804688 4.199219 C 22.582031 3.058594 21.574219 2.191406 20.371094 2.191406 L 9.617188 2.191406 C 8.414062 2.191406 7.40625 3.058594 7.1875 4.199219 C 7.269531 4.191406 7.355469 4.191406 7.441406 4.191406 L 9.203125 4.191406 L 9.203125 3.992188 C 9.203125 3.304688 9.785156 2.777344 10.460938 2.777344 C 11.132812 2.777344 11.714844 3.304688 11.714844 3.992188 L 11.714844 4.191406 L 13.738281 4.191406 L 13.738281 3.992188 C 13.738281 3.304688 14.320312 2.777344 14.996094 2.777344 C 15.667969 2.777344 16.25 3.304688 16.25 3.992188 L 16.25 4.191406 L 18.273438 4.191406 L 18.273438 3.992188 C 18.273438 3.304688 18.855469 2.777344 19.53125 2.777344 C 20.203125 2.777344 20.785156 3.304688 20.785156 3.992188 L 20.785156 4.191406 L 22.550781 4.191406 C 22.636719 4.191406 22.71875 4.191406 22.804688 4.199219 Z M 22.804688 4.199219 " fill-opacity="1" fill-rule="evenodd"/></g><g clip-path="url(#43b756e413)"><path fill="#dbce27" d="M 7.441406 19.8125 L 22.550781 19.8125 C 23.996094 19.8125 25.183594 18.628906 25.183594 17.183594 L 25.183594 7.421875 C 25.183594 5.972656 23.996094 4.789062 22.550781 4.789062 L 20.785156 4.789062 L 20.785156 5.253906 C 20.785156 5.941406 20.203125 6.46875 19.53125 6.46875 C 18.855469 6.46875 18.273438 5.941406 18.273438 5.253906 L 18.273438 4.789062 L 16.25 4.789062 L 16.25 5.253906 C 16.25 5.941406 15.667969 6.46875 14.996094 6.46875 C 14.320312 6.46875 13.738281 5.941406 13.738281 5.253906 L 13.738281 4.789062 L 11.714844 4.789062 L 11.714844 5.253906 C 11.714844 5.941406 11.132812 6.46875 10.460938 6.46875 C 9.785156 6.46875 9.203125 5.941406 9.203125 5.253906 L 9.203125 4.789062 L 7.441406 4.789062 C 5.992188 4.789062 4.808594 5.972656 4.808594 7.421875 L 4.808594 17.183594 C 4.808594 18.628906 5.992188 19.8125 7.441406 19.8125 Z M 19.265625 10.09375 C 20.351562 10.09375 21.34375 10.503906 22.089844 11.179688 L 22.386719 10.882812 C 22.90625 10.363281 23.753906 10.363281 24.273438 10.882812 C 24.792969 11.402344 24.792969 12.25 24.273438 12.769531 L 23.425781 13.617188 C 23.460938 13.84375 23.480469 14.074219 23.480469 14.308594 C 23.480469 16.632812 21.59375 18.519531 19.265625 18.519531 C 16.9375 18.519531 15.054688 16.632812 15.054688 14.308594 C 15.054688 11.980469 16.9375 10.09375 19.265625 10.09375 Z M 16.042969 6.808594 L 18.105469 6.808594 C 18.269531 6.808594 18.40625 6.941406 18.40625 7.105469 L 18.40625 9.171875 C 18.40625 9.335938 18.269531 9.46875 18.105469 9.46875 L 16.042969 9.46875 C 15.875 9.46875 15.742188 9.335938 15.742188 9.171875 L 15.742188 7.105469 C 15.742188 6.941406 15.875 6.808594 16.042969 6.808594 Z M 7.726562 15.273438 L 9.789062 15.273438 C 9.957031 15.273438 10.089844 15.40625 10.089844 15.570312 L 10.089844 17.636719 C 10.089844 17.800781 9.957031 17.933594 9.789062 17.933594 L 7.726562 17.933594 C 7.5625 17.933594 7.425781 17.800781 7.425781 17.636719 L 7.425781 15.570312 C 7.425781 15.40625 7.5625 15.273438 7.726562 15.273438 Z M 9.492188 15.871094 L 9.492188 17.335938 L 8.027344 17.335938 L 8.027344 15.871094 Z M 11.882812 15.273438 L 13.949219 15.273438 C 14.113281 15.273438 14.246094 15.40625 14.246094 15.570312 L 14.246094 17.636719 C 14.246094 17.800781 14.113281 17.933594 13.949219 17.933594 L 11.882812 17.933594 C 11.71875 17.933594 11.585938 17.800781 11.585938 17.636719 L 11.585938 15.570312 C 11.585938 15.40625 11.71875 15.273438 11.882812 15.273438 Z M 13.648438 15.871094 L 13.648438 17.335938 L 12.183594 17.335938 L 12.183594 15.871094 Z M 11.882812 11.039062 L 13.949219 11.039062 C 14.113281 11.039062 14.246094 11.171875 14.246094 11.339844 L 14.246094 13.402344 C 14.246094 13.566406 14.113281 13.703125 13.949219 13.703125 L 11.882812 13.703125 C 11.71875 13.703125 11.585938 13.566406 11.585938 13.402344 L 11.585938 11.339844 C 11.585938 11.171875 11.71875 11.039062 11.882812 11.039062 Z M 13.648438 11.636719 L 13.648438 13.105469 L 12.183594 13.105469 L 12.183594 11.636719 Z M 7.726562 11.039062 L 9.789062 11.039062 C 9.957031 11.039062 10.089844 11.171875 10.089844 11.339844 L 10.089844 13.402344 C 10.089844 13.566406 9.957031 13.703125 9.789062 13.703125 L 7.726562 13.703125 C 7.5625 13.703125 7.425781 13.566406 7.425781 13.402344 L 7.425781 11.339844 C 7.425781 11.171875 7.5625 11.039062 7.726562 11.039062 Z M 9.492188 11.636719 L 9.492188 13.105469 L 8.027344 13.105469 L 8.027344 11.636719 Z M 7.726562 6.808594 L 9.789062 6.808594 C 9.957031 6.808594 10.089844 6.941406 10.089844 7.105469 L 10.089844 9.167969 C 10.089844 9.335938 9.957031 9.46875 9.789062 9.46875 L 7.726562 9.46875 C 7.5625 9.46875 7.425781 9.335938 7.425781 9.167969 L 7.425781 7.105469 C 7.425781 6.941406 7.5625 6.808594 7.726562 6.808594 Z M 9.492188 7.40625 L 9.492188 8.871094 L 8.027344 8.871094 L 8.027344 7.40625 Z M 11.882812 6.808594 L 13.949219 6.808594 C 14.113281 6.808594 14.246094 6.941406 14.246094 7.105469 L 14.246094 9.167969 C 14.246094 9.335938 14.113281 9.46875 13.949219 9.46875 L 11.882812 9.46875 C 11.71875 9.46875 11.585938 9.335938 11.585938 9.167969 L 11.585938 7.105469 C 11.585938 6.941406 11.71875 6.808594 11.882812 6.808594 Z M 13.648438 7.40625 L 13.648438 8.871094 L 12.183594 8.871094 L 12.183594 7.40625 Z M 20.199219 6.808594 L 22.261719 6.808594 C 22.429688 6.808594 22.5625 6.941406 22.5625 7.105469 L 22.5625 9.167969 C 22.5625 9.335938 22.429688 9.46875 22.261719 9.46875 L 20.199219 9.46875 C 20.035156 9.46875 19.902344 9.335938 19.902344 9.167969 L 19.902344 7.105469 C 19.902344 6.941406 20.035156 6.808594 20.199219 6.808594 Z M 21.964844 7.40625 L 21.964844 8.871094 L 20.5 8.871094 L 20.5 7.40625 Z M 17.808594 7.40625 L 17.808594 8.871094 L 16.339844 8.871094 L 16.339844 7.40625 Z M 17.808594 7.40625 " fill-opacity="1" fill-rule="evenodd"/></g><path fill="#846a1d" d="M 19.265625 10.691406 C 20.1875 10.691406 21.027344 11.035156 21.664062 11.601562 L 20.238281 13.03125 L 19.542969 12.335938 C 19.023438 11.816406 18.175781 11.816406 17.65625 12.335938 C 17.136719 12.855469 17.136719 13.703125 17.65625 14.222656 L 19.425781 15.992188 C 19.875 16.441406 20.601562 16.441406 21.050781 15.992188 L 22.878906 14.164062 C 22.878906 14.210938 22.882812 14.257812 22.882812 14.308594 C 22.882812 16.304688 21.261719 17.921875 19.265625 17.921875 C 17.269531 17.921875 15.652344 16.304688 15.652344 14.308594 C 15.652344 12.308594 17.269531 10.691406 19.265625 10.691406 Z M 19.265625 10.691406 " fill-opacity="1" fill-rule="evenodd"/><path fill="#846a1d" d="M 18.078125 12.757812 C 18.363281 12.472656 18.832031 12.472656 19.121094 12.757812 L 20.238281 13.875 L 22.808594 11.304688 C 23.09375 11.019531 23.5625 11.019531 23.851562 11.304688 C 24.136719 11.589844 24.136719 12.058594 23.851562 12.347656 L 20.628906 15.570312 C 20.414062 15.785156 20.0625 15.785156 19.847656 15.570312 L 18.078125 13.800781 C 17.792969 13.511719 17.792969 13.042969 18.078125 12.757812 Z M 18.078125 12.757812 " fill-opacity="1" fill-rule="evenodd"/><path fill="#846a1d" d="M 10.460938 3.375 C 10.820312 3.375 11.117188 3.652344 11.117188 3.992188 L 11.117188 5.253906 C 11.117188 5.59375 10.820312 5.871094 10.460938 5.871094 C 10.097656 5.871094 9.800781 5.59375 9.800781 5.253906 L 9.800781 3.992188 C 9.800781 3.652344 10.097656 3.375 10.460938 3.375 Z M 19.53125 3.375 C 19.890625 3.375 20.1875 3.652344 20.1875 3.992188 L 20.1875 5.253906 C 20.1875 5.59375 19.890625 5.871094 19.53125 5.871094 C 19.167969 5.871094 18.871094 5.59375 18.871094 5.253906 L 18.871094 3.992188 C 18.871094 3.652344 19.167969 3.375 19.53125 3.375 Z M 14.996094 3.375 C 15.355469 3.375 15.652344 3.652344 15.652344 3.992188 L 15.652344 5.253906 C 15.652344 5.59375 15.355469 5.871094 14.996094 5.871094 C 14.632812 5.871094 14.335938 5.59375 14.335938 5.253906 L 14.335938 3.992188 C 14.335938 3.652344 14.632812 3.375 14.996094 3.375 Z M 14.996094 3.375 " fill-opacity="1" fill-rule="evenodd"/></svg>